<svg version="1.1" id="Layer_1" xmlns="http://www.w3.org/2000/svg" xmlns:xlink="http://www.w3.org/1999/xlink" x="0px" y="0px"
	 width="100%" viewBox="0 0 250 244" enable-background="new 0 0 250 244" xml:space="preserve">
<path fill="#FDFEFE" opacity="1.000000" stroke="none" 
	d="
M251.000000,79.000000 
	C251.000000,134.308029 251.000000,189.616058 251.000000,244.962036 
	C167.730087,244.962036 84.460159,244.962036 1.095116,244.962036 
	C1.095116,163.767365 1.095116,82.534592 1.095116,1.150905 
	C84.333130,1.150905 167.666534,1.150905 251.000000,1.150905 
	C251.000000,16.409988 251.000000,31.736336 250.704041,47.557671 
	C249.938965,48.363396 249.469864,48.674137 248.625931,48.982346 
	C247.501511,48.990307 246.751923,49.000801 245.845642,48.790394 
	C245.086792,48.942467 244.484634,49.315441 243.435364,49.756729 
	C239.342316,49.923576 235.696381,50.022110 231.584717,50.028610 
	C225.078781,49.934399 219.038574,49.932224 212.783478,49.681023 
	C211.379349,49.599293 210.190079,49.766586 208.532593,49.943436 
	C202.983566,49.937588 197.902374,49.955597 192.822174,49.892921 
	C190.216980,49.860783 187.775223,49.477097 188.108307,45.798740 
	C188.308548,44.070812 188.201630,42.536522 188.087830,40.640289 
	C188.106781,39.555061 188.132599,38.831779 188.521378,37.978230 
	C189.916489,32.637878 190.993149,27.435734 191.925293,22.207821 
	C192.043945,21.542355 191.407516,20.742258 191.116852,19.588209 
	C191.099731,17.784904 191.086670,16.397923 191.314941,14.790193 
	C190.685547,10.535656 187.409958,11.034458 184.607193,11.102118 
	C176.200409,11.305063 167.799026,11.898434 159.393784,11.934861 
	C154.705902,11.955176 152.606094,13.716028 152.975983,18.418152 
	C153.118423,20.228834 152.672562,22.146442 153.104767,23.861622 
	C154.146851,27.997284 155.548798,32.042267 156.842087,36.526424 
	C156.908524,38.283634 156.938507,39.638237 156.698242,41.252655 
	C156.307205,42.322723 156.012619,43.150730 156.093292,43.940399 
	C156.714615,50.022236 156.737167,50.020321 150.397186,50.024403 
	C148.899368,50.025368 147.400513,50.058865 145.903900,50.015976 
	C134.791519,49.697536 123.680641,49.315498 112.566696,49.072372 
	C110.146889,49.019436 106.952194,48.743324 108.918785,53.462456 
	C108.917419,59.287518 108.923355,64.644691 108.648529,70.303146 
	C108.252304,73.402267 107.768631,76.249947 108.138405,78.982124 
	C108.431915,81.150871 109.458755,84.708900 110.706772,84.962845 
	C113.682777,85.568382 116.982170,84.584602 120.604630,84.212357 
	C125.372871,84.144516 129.687424,84.107048 134.303513,84.351540 
	C141.794922,83.996857 148.984787,83.360214 156.188873,82.763779 
	C156.203079,82.803986 156.234268,82.883369 156.163391,83.275467 
	C156.383469,85.111603 156.674438,86.555634 156.966278,88.432358 
	C156.911606,90.868057 156.856094,92.871071 156.446869,94.998199 
	C155.498383,96.952911 154.573196,98.747726 154.370407,100.620743 
	C153.745010,106.397507 153.395416,112.204124 152.931473,118.313019 
	C152.894867,119.044456 152.865479,119.462029 152.505020,119.958038 
	C151.449814,122.024323 150.725708,124.012161 149.995728,126.351784 
	C150.066238,127.164284 150.142639,127.625008 150.137268,128.302002 
	C150.055481,128.518295 149.891785,128.950806 149.551422,129.017456 
	C146.858124,134.329193 144.490784,139.568039 142.199402,144.839874 
	C142.096298,145.077118 142.681442,145.613495 142.949158,146.360306 
	C143.021469,147.170197 143.090668,147.630310 143.101105,148.058899 
	C143.042343,148.027374 142.930923,147.954132 142.588257,147.993973 
	C140.349960,149.208008 137.794739,150.107101 140.112885,153.408554 
	C139.907944,154.451553 139.741440,155.140900 139.238647,155.873718 
	C133.348495,160.274490 131.551559,166.615707 129.868896,173.337769 
	C129.873245,174.081314 129.880264,174.505798 129.825500,175.205750 
	C129.714813,175.854233 129.665955,176.227295 129.313461,176.715683 
	C127.964828,177.854752 126.919823,178.878494 125.534523,179.971954 
	C123.171082,183.395721 121.147942,186.749741 119.082878,190.402145 
	C118.974739,191.096802 118.908516,191.493073 118.502174,191.968414 
	C117.087563,194.006729 116.013077,195.965958 114.969925,197.952057 
	C115.001259,197.978912 114.928139,197.942886 114.601273,197.987488 
	C113.514427,199.354614 112.754456,200.677155 111.945068,202.325317 
	C110.876541,204.061508 109.857414,205.472092 108.512161,206.957397 
	C107.273788,208.217850 106.361534,209.403549 105.449287,210.589249 
	C106.451569,211.353973 107.346413,212.473648 108.476608,212.815735 
	C111.652901,213.777100 121.268982,209.146500 123.254120,205.799408 
	C124.320801,205.385162 125.160988,205.202179 126.200699,205.260498 
	C129.597458,203.331772 132.794693,201.161774 136.213165,198.953430 
	C136.434387,198.915085 136.878540,198.848953 137.226440,198.871521 
	C138.717087,197.633835 139.859848,196.373581 141.291580,195.043213 
	C142.052902,194.647934 142.525238,194.322800 143.336655,193.970718 
	C144.462433,192.976318 145.249161,192.008850 146.183746,190.762970 
	C147.230957,189.330795 148.130310,188.177048 149.242828,186.998108 
	C149.455978,186.972916 149.881531,186.916336 150.237305,186.924896 
	C160.279465,179.288177 166.435760,169.193680 170.819031,157.502197 
	C170.760574,156.722931 170.661285,156.282166 170.678299,155.552170 
	C170.908295,154.863052 171.021988,154.463150 171.468689,154.016541 
	C173.663086,152.812241 176.057388,151.900284 174.091309,148.639648 
	C174.020035,147.844269 173.957718,147.391983 173.956085,146.978699 
	C174.016754,147.017700 174.144485,147.084732 174.483826,147.006531 
	C178.418793,142.493973 180.025726,137.622742 178.093277,131.618317 
	C178.108582,130.541458 178.138306,129.823410 178.520569,128.983444 
	C179.273529,126.875427 179.673935,124.889305 180.538193,122.897705 
	C186.499176,122.877777 191.998199,122.770683 197.492752,122.882812 
	C200.914566,122.952644 206.312012,122.184235 207.305252,123.867538 
	C208.996628,126.734093 207.937912,131.235245 207.982239,135.050217 
	C207.989777,135.699020 207.690567,136.345291 207.608704,137.002151 
	C206.422073,146.523865 205.354034,156.061813 204.036987,165.565308 
	C203.042542,172.740921 201.892029,179.903900 200.504074,187.012573 
	C199.695984,191.151367 199.488342,196.671463 196.806061,198.827484 
	C194.081207,201.017761 188.637070,199.741440 184.405624,200.189499 
	C183.052460,200.332748 180.860413,200.901062 180.659027,201.686752 
	C180.327652,202.979614 180.886932,204.962265 181.797546,206.039963 
	C190.136978,215.909546 198.663605,225.620605 207.069046,235.434921 
	C210.477142,239.414276 213.374786,239.442657 215.904465,234.767899 
	C218.080887,230.745956 219.741302,226.405609 221.264496,222.077469 
	C224.476654,212.950119 227.581253,203.779312 230.440887,194.536880 
	C231.305145,191.743591 231.082291,188.632339 231.591934,185.707596 
	C233.314743,175.821030 235.669922,166.012222 236.791534,156.061890 
	C238.071564,144.706360 238.537277,133.238358 238.873138,121.805016 
	C239.069977,115.104874 238.358322,108.375137 237.988098,101.662422 
	C237.786560,98.008430 235.469284,97.135429 232.174179,97.080612 
	C216.379486,96.817902 200.587173,96.412773 184.817032,95.587692 
	C184.850449,91.294495 185.093018,87.454552 184.810074,83.653748 
	C184.485825,79.298294 186.093384,77.771965 190.499664,77.923683 
	C205.257889,78.431831 220.026215,78.658638 234.791733,78.937004 
	C240.192963,79.038834 245.597153,78.983589 251.000000,79.000000 
M95.074471,34.156212 
	C95.014038,32.778934 94.953606,31.401655 94.754730,29.238611 
	C93.092201,28.848503 91.424088,28.098930 89.768021,28.124657 
	C75.378662,28.348217 60.992249,28.754333 46.603283,29.012806 
	C39.973301,29.131899 33.339413,29.017660 26.707666,29.063169 
	C24.587124,29.077719 22.090340,28.731617 22.206682,33.065071 
	C21.889536,52.858192 21.719772,72.655098 21.211426,92.443306 
	C20.755117,110.205833 19.747765,127.954361 19.307638,145.717102 
	C18.759590,167.835419 18.583641,189.962753 18.151468,212.084320 
	C18.065847,216.466949 20.083078,217.982071 24.241272,217.871979 
	C30.898930,217.695740 37.564503,217.844589 44.225243,217.750549 
	C49.894447,217.670517 51.095345,216.553848 50.800301,210.968140 
	C49.925171,194.400284 48.325069,177.851242 48.025459,161.276443 
	C47.360668,124.499229 47.315945,87.710800 47.950363,50.949486 
	C53.491821,50.949486 59.033279,50.949486 65.228470,50.949486 
	C61.016243,61.490250 57.054630,70.974579 53.519119,80.615166 
	C52.816048,82.532288 53.077374,85.396652 54.034733,87.227837 
	C58.514477,95.796471 63.920277,103.913551 67.956741,112.670647 
	C70.987160,119.245102 72.440964,126.546280 74.695465,133.843704 
	C70.007690,134.281021 66.065689,134.569000 62.148788,135.058044 
	C60.803162,135.226074 58.728668,135.586533 58.404526,136.414185 
	C57.977432,137.504700 58.588093,139.397446 59.373417,140.505127 
	C66.435608,150.466187 73.575722,160.373734 80.829079,170.196472 
	C82.912842,173.018372 86.171532,172.643753 87.621033,169.631042 
	C92.886780,158.686432 96.812019,147.365982 97.804832,134.858109 
	C99.499367,132.347260 100.222031,129.942581 97.017639,127.119148 
	C96.147522,121.199997 96.460869,114.762993 94.147224,109.475487 
	C90.035324,100.078224 84.270454,91.410637 79.357002,82.351067 
	C78.585823,80.929138 77.939552,78.778984 78.452003,77.426445 
	C82.352142,67.132484 86.588936,56.966610 90.631203,46.725456 
	C91.346725,44.912659 91.644066,42.934803 92.731178,40.901237 
	C93.123772,40.260395 93.516365,39.619549 93.986717,38.484596 
	C93.990334,38.317905 93.993950,38.151218 94.625626,37.875549 
	C94.771317,36.911957 94.917007,35.948368 95.074471,34.156212 
z"/>
<path fill="#99D9D6" opacity="1.000000" stroke="none" 
	d="
M246.002335,49.011292 
	C246.751923,49.000801 247.501511,48.990307 248.741486,49.251511 
	C249.821243,50.015476 250.410614,50.507744 251.000000,51.000004 
	C251.000000,60.020893 251.000000,69.041786 251.000000,78.531342 
	C245.597153,78.983589 240.192963,79.038834 234.791733,78.937004 
	C220.026215,78.658638 205.257889,78.431831 190.499664,77.923683 
	C186.093384,77.771965 184.485825,79.298294 184.810074,83.653748 
	C185.093018,87.454552 184.850449,91.294495 184.609146,95.586197 
	C184.378235,96.055252 183.958557,96.069351 183.597595,96.045090 
	C182.514282,96.012230 181.791901,96.003624 181.050522,95.527725 
	C181.025513,91.230751 181.013535,87.401062 181.014816,83.571381 
	C181.017166,76.517128 181.554840,75.901176 188.779312,76.010002 
	C206.560623,76.277824 224.340103,76.665741 242.121307,76.942474 
	C244.746704,76.983337 247.756607,77.255737 247.997772,73.314568 
	C248.362122,67.360291 248.943817,61.400955 248.878723,55.449837 
	C248.858948,53.641220 247.010544,51.852608 246.001984,49.793953 
	C246.003632,49.359142 246.002975,49.185215 246.002335,49.011292 
z"/>
<path fill="#CCECEA" opacity="1.000000" stroke="none" 
	d="
M251.000000,50.625004 
	C250.410614,50.507744 249.821243,50.015476 249.116318,49.254044 
	C249.469864,48.674137 249.938965,48.363396 250.704041,48.026329 
	C251.000000,48.750000 251.000000,49.500000 251.000000,50.625004 
z"/>
<path fill="#68C8C3" opacity="1.000000" stroke="none" 
	d="
M245.999664,50.054832 
	C247.010544,51.852608 248.858948,53.641220 248.878723,55.449837 
	C248.943817,61.400955 248.362122,67.360291 247.997772,73.314568 
	C247.756607,77.255737 244.746704,76.983337 242.121307,76.942474 
	C224.340103,76.665741 206.560623,76.277824 188.779312,76.010002 
	C181.554840,75.901176 181.017166,76.517128 181.014816,83.571381 
	C181.013535,87.401062 181.025513,91.230751 181.026825,95.950455 
	C181.006409,100.206131 180.990692,103.571800 181.016876,107.361969 
	C180.952576,109.191368 180.846390,110.596268 180.409241,112.076897 
	C177.564987,115.399895 175.963577,118.833389 177.868912,123.391525 
	C177.809021,125.156708 177.746704,126.512939 177.345703,128.001251 
	C176.066360,130.732895 174.796356,133.268921 174.278976,135.950195 
	C173.776367,138.554901 174.045715,141.308594 173.967514,144.384293 
	C174.020798,145.542725 174.082642,146.313736 174.144470,147.084732 
	C174.144485,147.084732 174.016754,147.017700 173.635483,147.034225 
	C172.498932,148.699631 171.743652,150.348495 170.978485,152.344025 
	C171.024277,153.148209 171.079987,153.605743 171.135681,154.063263 
	C171.021988,154.463150 170.908295,154.863052 170.346207,155.593109 
	C167.671967,159.671509 165.446121,163.419754 163.168365,167.524841 
	C161.168686,170.670990 159.216034,173.456894 157.274368,176.250427 
	C154.805435,179.802505 152.345413,183.360764 149.881531,186.916336 
	C149.881531,186.916336 149.455978,186.972916 148.875122,186.975464 
	C146.864609,188.320511 145.434921,189.663010 143.883026,191.213455 
	C143.557877,191.681335 143.303787,191.873749 142.681244,192.030457 
	C141.909637,192.684723 141.455353,193.307190 140.695221,193.976944 
	C139.987213,194.110657 139.585052,194.197083 138.829102,194.240982 
	C130.448364,198.942017 123.233192,205.405411 112.994606,207.170868 
	C114.264580,203.405151 115.176102,200.702332 116.118965,197.673752 
	C117.151398,195.932755 118.152489,194.517502 119.490372,193.031799 
	C123.090477,187.507675 126.353783,182.054001 129.617096,176.600342 
	C129.665955,176.227295 129.714813,175.854233 130.196777,175.199692 
	C133.686615,169.227661 136.743378,163.537140 139.826294,157.504364 
	C139.759918,156.718140 139.667419,156.274185 139.574921,155.830231 
	C139.741440,155.140900 139.907944,154.451553 140.343842,153.434052 
	C140.613220,153.105881 141.077911,153.063385 141.392914,153.023392 
	C142.163986,151.990601 142.620056,150.997803 143.080261,149.661255 
	C143.033264,148.863052 142.982086,148.408600 142.930923,147.954132 
	C142.930923,147.954132 143.042343,148.027374 143.430252,147.982422 
	C146.149948,145.412476 148.740646,142.980988 147.060287,138.690002 
	C147.115219,137.964447 147.155334,137.550476 147.522247,137.053833 
	C148.595505,134.981979 149.341965,132.992798 150.085052,130.658722 
	C150.018372,129.859482 149.955078,129.405136 149.891785,128.950806 
	C149.891785,128.950806 150.055481,128.518295 150.464600,128.216522 
	C155.760254,121.136444 156.911285,113.178413 157.935028,105.207794 
	C158.067337,104.177734 157.436264,103.049629 157.136536,101.657379 
	C157.128845,100.933975 157.143448,100.520142 157.525269,99.972748 
	C158.571213,94.430031 159.431641,89.031189 159.740204,83.600998 
	C159.788620,82.749046 157.332169,81.754753 155.632507,80.841248 
	C154.161407,80.871414 153.091751,80.886620 151.710022,80.628433 
	C149.747391,80.246681 148.085037,79.955017 146.448181,80.060211 
	C137.026276,80.665749 127.597252,81.223396 118.198257,82.095123 
	C113.768967,82.505928 112.210968,80.481003 112.008308,76.512642 
	C111.703911,70.552109 111.486732,64.581070 110.943184,58.640965 
	C110.589058,54.771061 112.143379,53.815449 115.783409,53.891758 
	C126.110512,54.108246 136.445007,54.026604 146.775864,53.956562 
	C148.527420,53.944687 150.275391,53.408558 152.396820,53.091888 
	C153.514084,53.079964 154.259567,53.090786 155.272522,53.362736 
	C159.832962,54.872753 161.445908,52.882233 160.963913,48.867134 
	C160.326965,43.561203 159.488571,38.278099 158.629257,33.002701 
	C158.557877,32.564507 157.667984,32.259644 157.144226,31.576385 
	C157.131912,30.837721 157.133774,30.415497 157.401062,29.692348 
	C157.605072,26.266579 157.895508,23.082680 157.383789,20.033396 
	C156.866196,16.949049 158.099152,16.033756 160.748505,16.024780 
	C168.900818,15.997159 177.053314,16.022989 185.205597,15.990174 
	C188.576218,15.976605 188.792603,17.458572 188.156296,20.461786 
	C187.506546,23.528383 187.941956,26.824898 187.915070,30.407490 
	C187.886459,31.821901 187.845078,32.849579 187.450638,33.998444 
	C186.109253,37.546070 184.892380,40.926247 184.187225,44.410004 
	C183.176880,49.401451 184.781204,51.755383 189.999756,51.860935 
	C203.174866,52.127415 216.359268,51.982475 229.538803,51.870480 
	C230.380920,51.863323 231.213455,50.730049 232.050446,50.120644 
	C235.696381,50.022110 239.342316,49.923576 243.775375,49.883072 
	C245.041550,49.979012 245.520615,50.016922 245.999664,50.054832 
z"/>
<path fill="#8CC6CF" opacity="1.000000" stroke="none" 
	d="
M47.018402,50.926945 
	C47.315945,87.710800 47.360668,124.499229 48.025459,161.276443 
	C48.325069,177.851242 49.925171,194.400284 50.800301,210.968140 
	C51.095345,216.553848 49.894447,217.670517 44.225243,217.750549 
	C37.564503,217.844589 30.898930,217.695740 24.241272,217.871979 
	C20.083078,217.982071 18.065847,216.466949 18.151468,212.084320 
	C18.583641,189.962753 18.759590,167.835419 19.307638,145.717102 
	C19.747765,127.954361 20.755117,110.205833 21.211426,92.443306 
	C21.719772,72.655098 21.889536,52.858192 22.637012,32.507626 
	C30.998861,31.995411 38.930382,32.040642 46.875896,32.284927 
	C46.889889,32.483978 46.948479,32.878742 46.920666,33.357765 
	C46.935215,38.931408 46.977573,44.026028 46.994667,49.421822 
	C46.985737,50.124313 47.002071,50.525631 47.018402,50.926945 
M45.043510,118.056061 
	C44.375256,93.982933 43.699261,69.910011 43.049095,45.836403 
	C42.972679,43.006927 43.236263,40.152950 42.943817,37.351929 
	C42.821388,36.179298 41.709099,34.190891 40.961563,34.150471 
	C35.757412,33.869041 30.530863,34.001808 26.090612,34.001808 
	C25.677435,40.871395 25.118383,46.758747 25.005348,52.654652 
	C24.587784,74.434326 24.295412,96.216515 23.997725,117.998337 
	C23.629478,144.942719 23.330492,171.888077 22.926691,198.831894 
	C22.869804,202.627747 22.205490,206.417297 22.206766,210.209641 
	C22.207193,211.474884 23.372814,213.817078 24.066019,213.839935 
	C31.941587,214.099609 39.828842,214.004776 47.618027,214.004776 
	C46.698666,205.719498 45.883389,198.372269 45.073627,190.082184 
	C45.057541,166.385422 45.041454,142.688644 45.043510,118.056061 
z"/>
<path fill="#EEB8BE" opacity="1.000000" stroke="none" 
	d="
M183.958557,96.069351 
	C183.958557,96.069351 184.378235,96.055252 184.586121,96.056747 
	C200.587173,96.412773 216.379486,96.817902 232.174179,97.080612 
	C235.469284,97.135429 237.786560,98.008430 237.988098,101.662422 
	C238.358322,108.375137 239.069977,115.104874 238.873138,121.805016 
	C238.537277,133.238358 238.071564,144.706360 236.791534,156.061890 
	C235.669922,166.012222 233.314743,175.821030 231.591934,185.707596 
	C231.082291,188.632339 231.305145,191.743591 230.440887,194.536880 
	C227.581253,203.779312 224.476654,212.950119 221.264496,222.077469 
	C219.741302,226.405609 218.080887,230.745956 215.904465,234.767899 
	C213.374786,239.442657 210.477142,239.414276 207.069046,235.434921 
	C198.663605,225.620605 190.136978,215.909546 181.797546,206.039963 
	C180.886932,204.962265 180.327652,202.979614 180.659027,201.686752 
	C180.860413,200.901062 183.052460,200.332748 184.405624,200.189499 
	C188.637070,199.741440 194.081207,201.017761 196.806061,198.827484 
	C199.488342,196.671463 199.695984,191.151367 200.504074,187.012573 
	C201.892029,179.903900 203.042542,172.740921 204.036987,165.565308 
	C205.354034,156.061813 206.422073,146.523865 207.608704,137.002151 
	C207.690567,136.345291 207.989777,135.699020 207.982239,135.050217 
	C207.937912,131.235245 208.996628,126.734093 207.305252,123.867538 
	C206.312012,122.184235 200.914566,122.952644 197.492752,122.882812 
	C191.998199,122.770683 186.499176,122.877777 180.510559,122.647034 
	C179.989471,122.235741 179.959839,122.069649 179.946198,121.519775 
	C180.247650,119.492233 180.533112,117.848480 181.126480,116.380249 
	C183.092590,117.299461 184.746674,118.666214 186.409744,118.677238 
	C193.043472,118.721207 199.678879,118.230789 206.315918,118.165421 
	C210.026215,118.128876 212.402481,119.849884 211.896347,124.010803 
	C211.296799,128.939560 209.980881,133.874008 210.093719,138.780273 
	C210.540863,158.222733 204.365540,176.641602 201.740112,195.598648 
	C200.931747,201.435547 198.456207,202.936661 192.458008,202.943619 
	C189.886902,202.946594 187.315781,202.944092 183.237991,202.944092 
	C193.089462,214.226562 201.958679,224.384094 211.478714,235.286987 
	C212.632507,233.472824 213.934311,231.735306 214.894150,229.825882 
	C215.777313,228.069016 216.304062,226.131302 216.968048,224.266220 
	C219.667374,216.683975 222.765961,209.213150 224.934601,201.481689 
	C226.939178,194.335114 228.030945,186.924042 229.369247,179.601044 
	C231.325104,168.898788 234.060242,158.233200 234.790085,147.438873 
	C235.743362,133.340317 234.996735,119.130661 235.131027,104.970230 
	C235.164566,101.432335 234.054840,99.871002 230.277771,99.831367 
	C218.310196,99.705795 206.345825,99.287514 194.379776,99.000229 
	C189.818268,98.890709 184.793381,97.873314 183.422302,104.369537 
	C183.381104,104.564705 182.541519,104.591370 182.060165,104.328384 
	C182.683624,101.329903 183.321091,98.699631 183.958557,96.069351 
z"/>
<path fill="#EFC2C8" opacity="1.000000" stroke="none" 
	d="
M47.484383,50.938217 
	C47.002071,50.525631 46.985737,50.124313 47.459991,49.392368 
	C53.279736,49.049725 58.608974,49.051632 63.938007,49.020180 
	C66.863007,49.002914 68.741203,50.250828 67.574600,53.262272 
	C64.667610,60.766350 61.279610,68.084282 58.380672,75.591225 
	C56.342735,80.868568 54.410561,86.373245 60.171886,90.861359 
	C60.541508,91.149300 60.719791,91.683449 60.985596,92.104004 
	C68.749023,104.387253 72.990021,118.162979 77.647789,131.745911 
	C78.823914,135.175735 77.356895,137.168518 73.440422,137.039291 
	C69.719536,136.916519 65.991417,137.012878 61.571545,137.012878 
	C62.363514,138.911942 62.566246,139.885574 63.103481,140.611710 
	C69.203140,148.856201 75.328743,157.081848 81.502167,165.271255 
	C84.397491,169.112076 85.919601,168.832870 87.790810,164.289078 
	C93.231613,151.077408 95.796021,137.585663 94.310226,123.102554 
	C92.815407,108.531509 87.017014,96.130135 78.234108,84.895073 
	C76.090111,82.152489 75.537926,79.776886 76.701530,76.701180 
	C77.983841,73.311722 79.053085,69.837631 80.430336,66.488907 
	C83.934479,57.968712 87.558678,49.497890 91.384933,41.006470 
	C91.801544,41.014812 91.968033,41.023991 92.134521,41.033169 
	C91.644066,42.934803 91.346725,44.912659 90.631203,46.725456 
	C86.588936,56.966610 82.352142,67.132484 78.452003,77.426445 
	C77.939552,78.778984 78.585823,80.929138 79.357002,82.351067 
	C84.270454,91.410637 90.035324,100.078224 94.147224,109.475487 
	C96.460869,114.762993 96.147522,121.199997 97.011948,127.984055 
	C97.028229,130.915665 97.050209,132.982361 97.072182,135.049072 
	C96.812019,147.365982 92.886780,158.686432 87.621033,169.631042 
	C86.171532,172.643753 82.912842,173.018372 80.829079,170.196472 
	C73.575722,160.373734 66.435608,150.466187 59.373417,140.505127 
	C58.588093,139.397446 57.977432,137.504700 58.404526,136.414185 
	C58.728668,135.586533 60.803162,135.226074 62.148788,135.058044 
	C66.065689,134.569000 70.007690,134.281021 74.695465,133.843704 
	C72.440964,126.546280 70.987160,119.245102 67.956741,112.670647 
	C63.920277,103.913551 58.514477,95.796471 54.034733,87.227837 
	C53.077374,85.396652 52.816048,82.532288 53.519119,80.615166 
	C57.054630,70.974579 61.016243,61.490250 65.228470,50.949486 
	C59.033279,50.949486 53.491821,50.949486 47.484383,50.938217 
z"/>
<path fill="#99D9D6" opacity="1.000000" stroke="none" 
	d="
M152.025024,53.114639 
	C150.275391,53.408558 148.527420,53.944687 146.775864,53.956562 
	C136.445007,54.026604 126.110512,54.108246 115.783409,53.891758 
	C112.143379,53.815449 110.589058,54.771061 110.943184,58.640965 
	C111.486732,64.581070 111.703911,70.552109 112.008308,76.512642 
	C112.210968,80.481003 113.768967,82.505928 118.198257,82.095123 
	C127.597252,81.223396 137.026276,80.665749 146.448181,80.060211 
	C148.085037,79.955017 149.747391,80.246681 151.442276,80.934326 
	C145.658386,82.365608 139.830185,83.217606 134.001984,84.069588 
	C129.687424,84.107048 125.372871,84.144516 120.144836,84.128304 
	C118.244232,84.054939 117.237648,83.899765 116.273216,84.038193 
	C111.158058,84.772331 109.532051,82.430534 109.893997,77.554276 
	C110.078079,75.074341 109.282188,72.521660 108.929291,70.001869 
	C108.923355,64.644691 108.917419,59.287518 109.273674,53.298203 
	C111.308624,52.120064 112.989784,51.079288 114.652802,51.107510 
	C126.398949,51.306816 138.141953,51.708385 149.883514,52.116215 
	C150.608032,52.141380 151.311676,52.767906 152.025024,53.114639 
z"/>
<path fill="#99D9D6" opacity="1.000000" stroke="none" 
	d="
M231.584717,50.028610 
	C231.213455,50.730049 230.380920,51.863323 229.538803,51.870480 
	C216.359268,51.982475 203.174866,52.127415 189.999756,51.860935 
	C184.781204,51.755383 183.176880,49.401451 184.187225,44.410004 
	C184.892380,40.926247 186.109253,37.546070 187.521515,34.419216 
	C188.016449,35.848701 188.087433,36.978596 188.158401,38.108494 
	C188.132599,38.831779 188.106781,39.555061 187.801727,40.850567 
	C187.615387,42.945984 187.708252,44.469181 187.801117,45.992378 
	C187.775223,49.477097 190.216980,49.860783 192.822174,49.892921 
	C197.902374,49.955597 202.983566,49.937588 208.734467,50.216553 
	C210.602509,50.296764 211.800430,50.113411 212.998367,49.930054 
	C219.038574,49.932224 225.078781,49.934399 231.584717,50.028610 
z"/>
<path fill="#ECCFD4" opacity="1.000000" stroke="none" 
	d="
M46.861904,32.085869 
	C38.930382,32.040642 30.998861,31.995411 22.690155,32.052345 
	C22.090340,28.731617 24.587124,29.077719 26.707666,29.063169 
	C33.339413,29.017660 39.973301,29.131899 46.603283,29.012806 
	C60.992249,28.754333 75.378662,28.348217 89.768021,28.124657 
	C91.424088,28.098930 93.092201,28.848503 94.367401,29.626186 
	C79.317688,30.339813 64.654755,30.644865 49.994110,31.036001 
	C48.941452,31.064085 47.905579,31.721220 46.861904,32.085869 
z"/>
<path fill="#CCECEA" opacity="1.000000" stroke="none" 
	d="
M152.396820,53.091888 
	C151.311676,52.767906 150.608032,52.141380 149.883514,52.116215 
	C138.141953,51.708385 126.398949,51.306816 114.652802,51.107510 
	C112.989784,51.079288 111.308624,52.120064 109.280975,52.830315 
	C106.952194,48.743324 110.146889,49.019436 112.566696,49.072372 
	C123.680641,49.315498 134.791519,49.697536 145.903900,50.015976 
	C147.400513,50.058865 148.899368,50.025368 150.397186,50.024403 
	C156.737167,50.020321 156.714615,50.022236 156.093292,43.940399 
	C156.012619,43.150730 156.307205,42.322723 156.987213,41.511993 
	C157.636963,45.580479 162.173172,50.624256 155.005051,53.101604 
	C154.259567,53.090786 153.514084,53.079964 152.396820,53.091888 
z"/>
<path fill="#CCECEA" opacity="1.000000" stroke="none" 
	d="
M157.135620,29.993273 
	C157.133774,30.415497 157.131912,30.837721 157.081451,31.997976 
	C156.957123,33.865276 156.881378,34.994549 156.805634,36.123817 
	C155.548798,32.042267 154.146851,27.997284 153.104767,23.861622 
	C152.672562,22.146442 153.118423,20.228834 152.975983,18.418152 
	C152.606094,13.716028 154.705902,11.955176 159.393784,11.934861 
	C167.799026,11.898434 176.200409,11.305063 184.607193,11.102118 
	C187.409958,11.034458 190.685547,10.535656 190.918640,14.634834 
	C179.851761,14.536312 169.419601,14.213188 158.996796,14.402911 
	C157.640381,14.427601 155.194214,17.114639 155.220596,18.531868 
	C155.291901,22.362890 156.424210,26.174164 157.135620,29.993273 
z"/>
<path fill="#99D9D6" opacity="1.000000" stroke="none" 
	d="
M157.401062,29.692348 
	C156.424210,26.174164 155.291901,22.362890 155.220596,18.531868 
	C155.194214,17.114639 157.640381,14.427601 158.996796,14.402911 
	C169.419601,14.213188 179.851761,14.536312 190.677307,14.855583 
	C191.086670,16.397923 191.099731,17.784904 190.810120,19.816442 
	C189.639069,23.647585 188.770676,26.834171 187.902298,30.020758 
	C187.941956,26.824898 187.506546,23.528383 188.156296,20.461786 
	C188.792603,17.458572 188.576218,15.976605 185.205597,15.990174 
	C177.053314,16.022989 168.900818,15.997159 160.748505,16.024780 
	C158.099152,16.033756 156.866196,16.949049 157.383789,20.033396 
	C157.895508,23.082680 157.605072,26.266579 157.401062,29.692348 
z"/>
<path fill="#EFC2C8" opacity="1.000000" stroke="none" 
	d="
M46.875896,32.284924 
	C47.905579,31.721220 48.941452,31.064085 49.994110,31.036001 
	C64.654755,30.644865 79.317688,30.339813 94.436615,30.019070 
	C94.953606,31.401655 95.014038,32.778934 94.795029,34.770157 
	C94.342911,36.250908 94.170235,37.117718 93.997559,37.984528 
	C93.993950,38.151218 93.990334,38.317905 93.626015,38.737480 
	C92.617287,39.005684 91.969269,39.021008 91.267380,38.648697 
	C92.664993,32.587055 92.203804,31.917246 86.217140,32.022213 
	C73.126610,32.251740 60.037922,32.586792 46.948479,32.878742 
	C46.948479,32.878742 46.889889,32.483978 46.875896,32.284924 
z"/>
<path fill="#99D9D6" opacity="1.000000" stroke="none" 
	d="
M116.087624,197.999512 
	C115.176102,200.702332 114.264580,203.405151 112.994606,207.170868 
	C123.233192,205.405411 130.448364,198.942017 138.744537,194.547333 
	C138.302002,196.213791 137.590271,197.531372 136.878540,198.848953 
	C136.878540,198.848953 136.434387,198.915085 135.856384,198.979706 
	C132.185974,201.035950 129.093567,203.027573 126.001160,205.019196 
	C125.160988,205.202179 124.320801,205.385162 122.885132,205.818268 
	C119.250031,207.308655 116.257904,208.688416 113.155556,209.744339 
	C110.734802,210.568283 108.867493,209.960693 108.838287,206.882660 
	C109.857414,205.472092 110.876541,204.061508 112.246704,202.187073 
	C113.374542,200.463104 114.151344,199.203003 114.928146,197.942886 
	C114.928139,197.942886 115.001259,197.978912 115.257050,197.977722 
	C115.704445,197.984192 115.896034,197.991852 116.087624,197.999512 
z"/>
<path fill="#CCECEA" opacity="1.000000" stroke="none" 
	d="
M150.237305,186.924896 
	C152.345413,183.360764 154.805435,179.802505 157.274368,176.250427 
	C159.216034,173.456894 161.168686,170.670990 163.485901,167.418304 
	C164.892487,165.496811 165.892792,164.010635 166.976547,162.588058 
	C168.204742,160.975876 169.507721,159.420670 170.778198,157.840698 
	C166.435760,169.193680 160.279465,179.288177 150.237305,186.924896 
z"/>
<path fill="#99D9D6" opacity="1.000000" stroke="none" 
	d="
M157.158783,101.966942 
	C157.436264,103.049629 158.067337,104.177734 157.935028,105.207794 
	C156.911285,113.178413 155.760254,121.136444 150.546387,128.000244 
	C150.142639,127.625008 150.066238,127.164284 150.271210,126.155350 
	C151.313751,123.697945 152.074936,121.788773 152.836121,119.879593 
	C152.865479,119.462029 152.894867,119.044456 153.226761,118.055328 
	C154.739105,112.311493 155.948944,107.139214 157.158783,101.966942 
z"/>
<path fill="#99D9D6" opacity="1.000000" stroke="none" 
	d="
M156.842087,36.526424 
	C156.881378,34.994549 156.957123,33.865276 157.095627,32.314419 
	C157.667984,32.259644 158.557877,32.564507 158.629257,33.002701 
	C159.488571,38.278099 160.326965,43.561203 160.963913,48.867134 
	C161.445908,52.882233 159.832962,54.872753 155.272522,53.362736 
	C162.173172,50.624256 157.636963,45.580479 157.257477,41.252174 
	C156.938507,39.638237 156.908524,38.283634 156.842087,36.526424 
z"/>
<path fill="#CCECEA" opacity="1.000000" stroke="none" 
	d="
M157.136520,101.657379 
	C155.948944,107.139214 154.739105,112.311493 153.233978,117.741455 
	C153.395416,112.204124 153.745010,106.397507 154.370407,100.620743 
	C154.573196,98.747726 155.498383,96.952911 156.519623,95.431854 
	C157.016754,97.196350 157.087387,98.651329 157.158020,100.106300 
	C157.143448,100.520142 157.128845,100.933975 157.136520,101.657379 
z"/>
<path fill="#CCECEA" opacity="1.000000" stroke="none" 
	d="
M108.512161,206.957397 
	C108.867493,209.960693 110.734802,210.568283 113.155556,209.744339 
	C116.257904,208.688416 119.250031,207.308655 122.658630,206.049545 
	C121.268982,209.146500 111.652901,213.777100 108.476608,212.815735 
	C107.346413,212.473648 106.451569,211.353973 105.449287,210.589249 
	C106.361534,209.403549 107.273788,208.217850 108.512161,206.957397 
z"/>
<path fill="#CCECEA" opacity="1.000000" stroke="none" 
	d="
M108.648529,70.303146 
	C109.282188,72.521660 110.078079,75.074341 109.893997,77.554276 
	C109.532051,82.430534 111.158058,84.772331 116.273216,84.038193 
	C117.237648,83.899765 118.244232,84.054939 119.691162,84.158676 
	C116.982170,84.584602 113.682777,85.568382 110.706772,84.962845 
	C109.458755,84.708900 108.431915,81.150871 108.138405,78.982124 
	C107.768631,76.249947 108.252304,73.402267 108.648529,70.303146 
z"/>
<path fill="#CCECEA" opacity="1.000000" stroke="none" 
	d="
M134.303513,84.351547 
	C139.830185,83.217606 145.658386,82.365608 151.754333,81.207718 
	C153.091751,80.886620 154.161407,80.871414 155.640228,81.161316 
	C156.091125,81.885468 156.132904,82.304520 156.174667,82.723572 
	C148.984787,83.360214 141.794922,83.996857 134.303513,84.351547 
z"/>
<path fill="#99D9D6" opacity="1.000000" stroke="none" 
	d="
M156.188873,82.763779 
	C156.132904,82.304520 156.091125,81.885468 156.041656,81.146347 
	C157.332169,81.754753 159.788620,82.749046 159.740204,83.600998 
	C159.431641,89.031189 158.571213,94.430031 157.525269,99.972748 
	C157.087387,98.651329 157.016754,97.196350 156.873352,95.307732 
	C156.856094,92.871071 156.911606,90.868057 157.239563,88.202217 
	C157.086090,85.987389 156.660172,84.435379 156.234253,82.883369 
	C156.234268,82.883369 156.203079,82.803986 156.188873,82.763779 
z"/>
<path fill="#99D9D6" opacity="1.000000" stroke="none" 
	d="
M129.313461,176.715683 
	C126.353783,182.054001 123.090477,187.507675 119.411896,192.728195 
	C118.945183,192.293152 118.893745,192.091248 118.842300,191.889343 
	C118.908516,191.493073 118.974739,191.096802 119.420197,190.336548 
	C121.824554,186.615784 123.849686,183.259003 125.874817,179.902222 
	C126.919823,178.878494 127.964828,177.854752 129.313461,176.715683 
z"/>
<path fill="#CCECEA" opacity="1.000000" stroke="none" 
	d="
M139.238647,155.873718 
	C139.667419,156.274185 139.759918,156.718140 139.492615,157.586548 
	C138.112747,159.409714 136.981201,160.741592 136.094833,162.220398 
	C133.959366,165.783234 131.938614,169.414841 129.871597,173.018707 
	C131.551559,166.615707 133.348495,160.274490 139.238647,155.873718 
z"/>
<path fill="#99D9D6" opacity="1.000000" stroke="none" 
	d="
M129.868896,173.337769 
	C131.938614,169.414841 133.959366,165.783234 136.094833,162.220398 
	C136.981201,160.741592 138.112747,159.409714 139.466476,157.928818 
	C136.743378,163.537140 133.686615,169.227661 130.258575,174.924255 
	C129.880264,174.505798 129.873245,174.081314 129.868896,173.337769 
z"/>
<path fill="#CCECEA" opacity="1.000000" stroke="none" 
	d="
M187.915070,30.407490 
	C188.770676,26.834171 189.639069,23.647585 190.814178,20.232765 
	C191.407516,20.742258 192.043945,21.542355 191.925293,22.207821 
	C190.993149,27.435734 189.916489,32.637878 188.521378,37.978230 
	C188.087433,36.978596 188.016449,35.848701 187.874588,34.298031 
	C187.845078,32.849579 187.886459,31.821901 187.915070,30.407490 
z"/>
<path fill="#CCECEA" opacity="1.000000" stroke="none" 
	d="
M174.483826,147.006531 
	C174.082642,146.313736 174.020798,145.542725 174.255341,144.155182 
	C175.737045,139.684784 176.922363,135.830963 178.107697,131.977127 
	C180.025726,137.622742 178.418793,142.493973 174.483826,147.006531 
z"/>
<path fill="#CCECEA" opacity="1.000000" stroke="none" 
	d="
M149.551422,129.017456 
	C149.955078,129.405136 150.018372,129.859482 149.794632,130.843964 
	C148.736877,133.294922 147.966156,135.215729 147.195435,137.136520 
	C147.155334,137.550476 147.115219,137.964447 146.775345,138.881042 
	C145.299042,141.592636 144.122528,143.801590 142.946014,146.010544 
	C142.681442,145.613495 142.096298,145.077118 142.199402,144.839874 
	C144.490784,139.568039 146.858124,134.329193 149.551422,129.017456 
z"/>
<path fill="#99D4D1" opacity="1.000000" stroke="none" 
	d="
M178.093277,131.618317 
	C176.922363,135.830963 175.737045,139.684784 174.263885,143.767731 
	C174.045715,141.308594 173.776367,138.554901 174.278976,135.950195 
	C174.796356,133.268921 176.066360,130.732895 177.476624,128.307129 
	C178.020172,128.689072 178.094101,128.897202 178.168030,129.105347 
	C178.138306,129.823410 178.108582,130.541458 178.093277,131.618317 
z"/>
<path fill="#99D4D1" opacity="1.000000" stroke="none" 
	d="
M170.819031,157.502197 
	C169.507721,159.420670 168.204742,160.975876 166.976547,162.588058 
	C165.892792,164.010635 164.892487,165.496811 163.537796,167.061462 
	C165.446121,163.419754 167.671967,159.671509 170.229904,155.882324 
	C170.661285,156.282166 170.760574,156.722931 170.819031,157.502197 
z"/>
<path fill="#CCECEA" opacity="1.000000" stroke="none" 
	d="
M125.534523,179.971954 
	C123.849686,183.259003 121.824554,186.615784 119.462112,190.038162 
	C121.147942,186.749741 123.171082,183.395721 125.534523,179.971954 
z"/>
<path fill="#CCECEA" opacity="1.000000" stroke="none" 
	d="
M126.200699,205.260483 
	C129.093567,203.027573 132.185974,201.035950 135.635162,199.018051 
	C132.794693,201.161774 129.597458,203.331772 126.200699,205.260483 
z"/>
<path fill="#99D9D6" opacity="1.000000" stroke="none" 
	d="
M142.949158,146.360306 
	C144.122528,143.801590 145.299042,141.592636 146.760513,139.192642 
	C148.740646,142.980988 146.149948,145.412476 143.489014,148.013947 
	C143.090668,147.630310 143.021469,147.170197 142.949158,146.360306 
z"/>
<path fill="#FAE3E5" opacity="1.000000" stroke="none" 
	d="
M97.438507,134.953583 
	C97.050209,132.982361 97.028229,130.915665 97.028893,128.406097 
	C100.222031,129.942581 99.499367,132.347260 97.438507,134.953583 
z"/>
<path fill="#CCECEA" opacity="1.000000" stroke="none" 
	d="
M152.505035,119.958038 
	C152.074936,121.788773 151.313751,123.697945 150.277100,125.803558 
	C150.725708,124.012161 151.449814,122.024323 152.505035,119.958038 
z"/>
<path fill="#CCECEA" opacity="1.000000" stroke="none" 
	d="
M178.520569,128.983444 
	C178.094101,128.897202 178.020172,128.689072 177.815308,128.175049 
	C177.746704,126.512939 177.809021,125.156708 178.148804,123.300613 
	C178.927582,122.501694 179.428894,122.202621 179.930206,121.903557 
	C179.959839,122.069649 179.989471,122.235741 180.046722,122.652512 
	C179.673935,124.889305 179.273529,126.875427 178.520569,128.983444 
z"/>
<path fill="#CCECEA" opacity="1.000000" stroke="none" 
	d="
M171.468689,154.016541 
	C171.079987,153.605743 171.024277,153.148209 171.267197,152.212769 
	C172.410629,150.817474 173.255447,149.900101 174.100281,148.982742 
	C176.057388,151.900284 173.663086,152.812241 171.468689,154.016541 
z"/>
<path fill="#CCECEA" opacity="1.000000" stroke="none" 
	d="
M137.226440,198.871521 
	C137.590271,197.531372 138.302002,196.213791 139.098297,194.589844 
	C139.585052,194.197083 139.987213,194.110657 140.693726,194.273163 
	C140.999573,194.719193 141.001099,194.916275 141.002609,195.113342 
	C139.859848,196.373581 138.717087,197.633835 137.226440,198.871521 
z"/>
<path fill="#CCECEA" opacity="1.000000" stroke="none" 
	d="
M118.502182,191.968414 
	C118.893745,192.091248 118.945183,192.293152 119.075104,192.798660 
	C118.152489,194.517502 117.151398,195.932755 116.118965,197.673752 
	C115.896034,197.991852 115.704445,197.984192 115.225723,197.950867 
	C116.013077,195.965958 117.087563,194.006729 118.502182,191.968414 
z"/>
<path fill="#CCECEA" opacity="1.000000" stroke="none" 
	d="
M141.077911,153.063385 
	C141.077911,153.063385 140.613220,153.105881 140.382278,153.080383 
	C137.794739,150.107101 140.349960,149.208008 142.588257,147.993973 
	C142.982086,148.408600 143.033264,148.863052 142.776016,149.792206 
	C142.004379,151.199066 141.541153,152.131226 141.077911,153.063385 
z"/>
<path fill="#99D9D6" opacity="1.000000" stroke="none" 
	d="
M144.005234,191.005493 
	C145.434921,189.663010 146.864609,188.320511 148.661972,187.000656 
	C148.130310,188.177048 147.230957,189.330795 145.845123,190.746704 
	C144.907501,191.007736 144.456375,191.006607 144.005234,191.005493 
z"/>
<path fill="#99D4D1" opacity="1.000000" stroke="none" 
	d="
M174.091309,148.639648 
	C173.255447,149.900101 172.410629,150.817474 171.277100,151.866119 
	C171.743652,150.348495 172.498932,148.699631 173.574814,146.995209 
	C173.957718,147.391983 174.020035,147.844269 174.091309,148.639648 
z"/>
<path fill="#CCECEA" opacity="1.000000" stroke="none" 
	d="
M188.108307,45.798740 
	C187.708252,44.469181 187.615387,42.945984 187.808609,41.212509 
	C188.201630,42.536522 188.308548,44.070812 188.108307,45.798740 
z"/>
<path fill="#CCECEA" opacity="1.000000" stroke="none" 
	d="
M156.163376,83.275467 
	C156.660172,84.435379 157.086090,85.987389 157.238708,87.769531 
	C156.674438,86.555634 156.383469,85.111603 156.163376,83.275467 
z"/>
<path fill="#CCECEA" opacity="1.000000" stroke="none" 
	d="
M114.601273,197.987488 
	C114.151344,199.203003 113.374542,200.463104 112.296112,201.861450 
	C112.754456,200.677155 113.514427,199.354614 114.601273,197.987488 
z"/>
<path fill="#CCECEA" opacity="1.000000" stroke="none" 
	d="
M212.783478,49.681030 
	C211.800430,50.113411 210.602509,50.296764 209.202698,50.207001 
	C210.190079,49.766586 211.379349,49.599293 212.783478,49.681030 
z"/>
<path fill="#CCECEA" opacity="1.000000" stroke="none" 
	d="
M143.883026,191.213455 
	C144.456375,191.006607 144.907501,191.007736 145.697266,191.025131 
	C145.249161,192.008850 144.462433,192.976318 143.332367,193.637543 
	C142.992203,192.887085 142.995392,192.442856 142.998566,191.998642 
	C143.303787,191.873749 143.557877,191.681335 143.883026,191.213455 
z"/>
<path fill="#ECCFD4" opacity="1.000000" stroke="none" 
	d="
M91.321243,39.036327 
	C91.969269,39.021008 92.617287,39.005684 93.587143,38.984535 
	C93.516365,39.619549 93.123772,40.260395 92.432846,40.967201 
	C91.968033,41.023991 91.801544,41.014812 91.354225,40.674042 
	C91.156013,39.907078 91.238625,39.471703 91.321243,39.036327 
z"/>
<path fill="#ECCFD4" opacity="1.000000" stroke="none" 
	d="
M94.311584,37.930038 
	C94.170235,37.117718 94.342911,36.250908 94.789139,35.184437 
	C94.917007,35.948368 94.771317,36.911957 94.311584,37.930038 
z"/>
<path fill="#99D9D6" opacity="1.000000" stroke="none" 
	d="
M142.681244,192.030457 
	C142.995392,192.442856 142.992203,192.887085 142.993317,193.664490 
	C142.525238,194.322800 142.052902,194.647934 141.291580,195.043213 
	C141.001099,194.916275 140.999573,194.719193 140.999557,194.225891 
	C141.455353,193.307190 141.909637,192.684723 142.681244,192.030457 
z"/>
<path fill="#CCECEA" opacity="1.000000" stroke="none" 
	d="
M246.001984,49.793949 
	C245.520615,50.016922 245.041550,49.979012 244.222504,49.814758 
	C244.484634,49.315441 245.086792,48.942467 245.845642,48.790390 
	C246.002975,49.185215 246.003632,49.359142 246.001984,49.793949 
z"/>
<path fill="#99D4D1" opacity="1.000000" stroke="none" 
	d="
M183.597595,96.045090 
	C183.321091,98.699631 182.683624,101.329903 181.998474,104.657761 
	C181.625519,105.882713 181.300247,106.410088 180.974976,106.937462 
	C180.990692,103.571800 181.006409,100.206131 181.045837,96.417740 
	C181.791901,96.003624 182.514282,96.012230 183.597595,96.045090 
z"/>
<path fill="#E37280" opacity="1.000000" stroke="none" 
	d="
M181.016876,107.361969 
	C181.300247,106.410088 181.625519,105.882713 182.012482,105.025963 
	C182.541519,104.591370 183.381104,104.564705 183.422302,104.369537 
	C184.793381,97.873314 189.818268,98.890709 194.379776,99.000229 
	C206.345825,99.287514 218.310196,99.705795 230.277771,99.831367 
	C234.054840,99.871002 235.164566,101.432335 235.131027,104.970230 
	C234.996735,119.130661 235.743362,133.340317 234.790085,147.438873 
	C234.060242,158.233200 231.325104,168.898788 229.369247,179.601044 
	C228.030945,186.924042 226.939178,194.335114 224.934601,201.481689 
	C222.765961,209.213150 219.667374,216.683975 216.968048,224.266220 
	C216.304062,226.131302 215.777313,228.069016 214.894150,229.825882 
	C213.934311,231.735306 212.632507,233.472824 211.478714,235.286987 
	C201.958679,224.384094 193.089462,214.226562 183.237991,202.944092 
	C187.315781,202.944092 189.886902,202.946594 192.458008,202.943619 
	C198.456207,202.936661 200.931747,201.435547 201.740112,195.598648 
	C204.365540,176.641602 210.540863,158.222733 210.093719,138.780273 
	C209.980881,133.874008 211.296799,128.939560 211.896347,124.010803 
	C212.402481,119.849884 210.026215,118.128876 206.315918,118.165421 
	C199.678879,118.230789 193.043472,118.721207 186.409744,118.677238 
	C184.746674,118.666214 183.092590,117.299461 181.170807,115.951851 
	C180.851547,114.232338 180.795868,113.116745 180.740204,112.001160 
	C180.846390,110.596268 180.952576,109.191368 181.016876,107.361969 
z"/>
<path fill="#99D4D1" opacity="1.000000" stroke="none" 
	d="
M180.409225,112.076897 
	C180.795868,113.116745 180.851547,114.232338 180.862900,115.776321 
	C180.533112,117.848480 180.247650,119.492233 179.946198,121.519775 
	C179.428894,122.202621 178.927582,122.501694 178.146362,122.891663 
	C175.963577,118.833389 177.564987,115.399895 180.409225,112.076897 
z"/>
<path fill="#99D9D6" opacity="1.000000" stroke="none" 
	d="
M147.522247,137.053833 
	C147.966156,135.215729 148.736877,133.294922 149.798019,131.188873 
	C149.341965,132.992798 148.595505,134.981979 147.522247,137.053833 
z"/>
<path fill="#99D9D6" opacity="1.000000" stroke="none" 
	d="
M141.392914,153.023392 
	C141.541153,152.131226 142.004379,151.199066 142.771851,150.135956 
	C142.620056,150.997803 142.163986,151.990601 141.392914,153.023392 
z"/>
<path fill="#5BAFBD" opacity="1.000000" stroke="none" 
	d="
M45.068115,191.025040 
	C45.883389,198.372269 46.698666,205.719498 47.618027,214.004776 
	C39.828842,214.004776 31.941587,214.099609 24.066019,213.839935 
	C23.372814,213.817078 22.207193,211.474884 22.206766,210.209641 
	C22.205490,206.417297 22.869804,202.627747 22.926691,198.831894 
	C23.330492,171.888077 23.629478,144.942719 23.997725,117.998337 
	C24.295412,96.216515 24.587784,74.434326 25.005348,52.654652 
	C25.118383,46.758747 25.677435,40.871395 26.090612,34.001808 
	C30.530863,34.001808 35.757412,33.869041 40.961563,34.150471 
	C41.709099,34.190891 42.821388,36.179298 42.943817,37.351929 
	C43.236263,40.152950 42.972679,43.006927 43.049095,45.836403 
	C43.699261,69.910011 44.375256,93.982933 44.635178,118.615814 
	C43.821651,120.000397 43.065048,120.824150 43.062523,121.650215 
	C42.995224,143.674057 42.975719,165.698288 43.090549,187.721725 
	C43.096313,188.826233 44.379646,189.924088 45.068115,191.025040 
z"/>
<path fill="#E47582" opacity="1.000000" stroke="none" 
	d="
M91.267380,38.648697 
	C91.238625,39.471703 91.156013,39.907078 91.104111,40.674881 
	C87.558678,49.497890 83.934479,57.968712 80.430336,66.488907 
	C79.053085,69.837631 77.983841,73.311722 76.701530,76.701180 
	C75.537926,79.776886 76.090111,82.152489 78.234108,84.895073 
	C87.017014,96.130135 92.815407,108.531509 94.310226,123.102554 
	C95.796021,137.585663 93.231613,151.077408 87.790810,164.289078 
	C85.919601,168.832870 84.397491,169.112076 81.502167,165.271255 
	C75.328743,157.081848 69.203140,148.856201 63.103481,140.611710 
	C62.566246,139.885574 62.363514,138.911942 61.571545,137.012878 
	C65.991417,137.012878 69.719536,136.916519 73.440422,137.039291 
	C77.356895,137.168518 78.823914,135.175735 77.647789,131.745911 
	C72.990021,118.162979 68.749023,104.387253 60.985596,92.104004 
	C60.719791,91.683449 60.541508,91.149300 60.171886,90.861359 
	C54.410561,86.373245 56.342735,80.868568 58.380672,75.591225 
	C61.279610,68.084282 64.667610,60.766350 67.574600,53.262272 
	C68.741203,50.250828 66.863007,49.002914 63.938007,49.020180 
	C58.608974,49.051632 53.279736,49.049725 47.485260,49.091190 
	C46.977573,44.026028 46.935215,38.931408 46.920666,33.357765 
	C60.037922,32.586792 73.126610,32.251740 86.217140,32.022213 
	C92.203804,31.917246 92.664993,32.587055 91.267380,38.648697 
z"/>
<path fill="#54ACBA" opacity="1.000000" stroke="none" 
	d="
M45.070873,190.553619 
	C44.379646,189.924088 43.096313,188.826233 43.090549,187.721725 
	C42.975719,165.698288 42.995224,143.674057 43.062523,121.650215 
	C43.065048,120.824150 43.821651,120.000397 44.626110,119.083725 
	C45.041454,142.688644 45.057541,166.385422 45.070873,190.553619 
z"/>
</svg>